<?xml version="1.0" encoding="UTF-8"?>
<svg width="20px" height="20px" viewBox="0 0 20 20" version="1.1" xmlns="http://www.w3.org/2000/svg" xmlns:xlink="http://www.w3.org/1999/xlink">
    <title>Icon/20px/download [#1453] Copy</title>
    <defs>
        <path d="M14.215,12.227 L11.374,14.913 C10.603,15.641 9.397,15.641 8.626,14.913 L5.785,12.227 C5.383,11.848 5.366,11.215 5.745,10.813 L5.745,10.813 C6.124,10.412 6.757,10.394 7.159,10.773 L8.156,11.716 C8.475,12.018 9,11.792 9,11.353 L9,6 C9,5.448 9.448,5 10,5 C10.552,5 11,5.448 11,6 L11,11.353 C11,11.792 11.525,12.018 11.843,11.716 L12.841,10.773 C13.242,10.394 13.875,10.412 14.255,10.813 L14.255,10.813 C14.634,11.215 14.616,11.848 14.215,12.227 M17,18 L3,18 C2.448,18 2,17.553 2,17 L2,3 C2,2.448 2.448,2 3,2 L17,2 C17.552,2 18,2.448 18,3 L18,17 C18,17.553 17.552,18 17,18 M0,2 L0,18 C0,19.105 0.895,20 2,20 L18,20 C19.104,20 20,19.105 20,18 L20,2 C20,0.896 19.104,0 18,0 L2,0 C0.895,0 0,0.896 0,2" id="path-1"></path>
    </defs>
    <g id="Icon/20px/download-[#1453]-Copy" stroke="none" stroke-width="1" fill="none" fill-rule="evenodd">
        <mask id="mask-2" fill="white">
            <use xlink:href="#path-1"></use>
        </mask>
        <use id="download-[#1453]" fill="#226978" xlink:href="#path-1"></use>
    </g>
</svg>